<?xml version="1.0" encoding="UTF-8" standalone="no"?>
<!-- Created with Inkscape (http://www.inkscape.org/) -->

<svg
   width="48"
   height="48"
   viewBox="234 44 48 48"
   version="1.1"
   id="svg1"
   xml:space="preserve"
   inkscape:version="1.2.2 (732a01da63, 2022-12-09)"
   sodipodi:docname="icon.svg"
   xmlns:inkscape="http://www.inkscape.org/namespaces/inkscape"
   xmlns:sodipodi="http://sodipodi.sourceforge.net/DTD/sodipodi-0.dtd"
   xmlns="http://www.w3.org/2000/svg"
   xmlns:svg="http://www.w3.org/2000/svg"><sodipodi:namedview
     id="namedview1"
     pagecolor="#ffffff"
     bordercolor="#000000"
     borderopacity="0.25"
     inkscape:showpageshadow="2"
     inkscape:pageopacity="0.0"
     inkscape:pagecheckerboard="0"
     inkscape:deskcolor="#d1d1d1"
     inkscape:document-units="mm"
     inkscape:zoom="8.2590072"
     inkscape:cx="-77.914934"
     inkscape:cy="25.184625"
     inkscape:window-width="3440"
     inkscape:window-height="1417"
     inkscape:window-x="-8"
     inkscape:window-y="-8"
     inkscape:window-maximized="1"
     inkscape:current-layer="layer1"
     showguides="true"
     showgrid="false"><sodipodi:guide
       position="186.96218,208.99611"
       orientation="0,-1"
       id="guide1"
       inkscape:locked="false" /><sodipodi:guide
       position="175.3048,203.75684"
       orientation="0,-1"
       id="guide2"
       inkscape:locked="false" /><sodipodi:guide
       position="170.59354,175.70202"
       orientation="0,-1"
       id="guide3"
       inkscape:locked="false" /><sodipodi:guide
       position="66.806641,164.1416"
       orientation="0,-1"
       id="guide4"
       inkscape:locked="false" /><sodipodi:guide
       position="247.62831,280.56536"
       orientation="1,0"
       id="guide456"
       inkscape:locked="false" /><sodipodi:guide
       position="266.33943,300.52236"
       orientation="0,-1"
       id="guide458"
       inkscape:locked="false" /><sodipodi:guide
       position="250.59599,279.24253"
       orientation="0,-1"
       id="guide460"
       inkscape:locked="false" /><sodipodi:guide
       position="23.972603,17.606164"
       orientation="1,0"
       id="guide422"
       inkscape:locked="false" /><sodipodi:guide
       position="63.184932,24.027397"
       orientation="0,-1"
       id="guide424"
       inkscape:locked="false" /></sodipodi:namedview><defs
     id="defs1"><rect
       x="329.55273"
       y="623.40393"
       width="284.23923"
       height="111.22405"
       id="rect1" /><rect
       x="329.55273"
       y="623.40393"
       width="284.23923"
       height="111.22405"
       id="rect4" /><rect
       x="329.55273"
       y="623.40393"
       width="284.23923"
       height="111.22405"
       id="rect5" /><rect
       x="329.55273"
       y="623.40393"
       width="284.23923"
       height="111.22405"
       id="rect6" /><rect
       x="329.55273"
       y="623.40393"
       width="284.23923"
       height="111.22405"
       id="rect295" /><rect
       x="329.55273"
       y="623.40393"
       width="284.23923"
       height="111.22405"
       id="rect297" /><rect
       x="329.55273"
       y="623.40393"
       width="284.23923"
       height="111.22405"
       id="rect299" /><rect
       x="329.55273"
       y="623.40393"
       width="284.23923"
       height="111.22405"
       id="rect301" /><rect
       x="329.55273"
       y="623.40393"
       width="284.23923"
       height="111.22405"
       id="rect799" /><rect
       x="329.55273"
       y="623.40393"
       width="284.23923"
       height="111.22405"
       id="rect801" /></defs><g
     inkscape:label="Layer 1"
     inkscape:groupmode="layer"
     id="layer1"
     transform="translate(-1.913644,-3.592646)"><rect
       style="fill:#00111b;stroke-width:3.66614;stroke-linecap:square;paint-order:fill markers stroke;stop-color:#000000;fill-opacity:1"
       id="rect305"
       width="48"
       height="48"
       x="235.91364"
       y="47.592648" /><path
       style="fill:#c65102;fill-opacity:1;stroke-width:0.216275"
       d="m 258.19578,85.107302 c 0,0 -2.15615,-3.430404 -5.5502,-9.123718 -0.62854,-1.054328 -2.16951,-3.616481 -3.4244,-5.693684 -1.25488,-2.07719 -2.35359,-3.857744 -2.44156,-4.027408 -0.18208,-0.35116 -0.19254,-0.446924 -0.0787,-0.719567 0.15717,-0.376174 0.13885,-0.373909 3.0275,-0.373909 2.84227,0 2.83253,-0.0012 3.17145,0.337901 0.0934,0.09343 0.86233,1.290765 1.70864,2.73135 4.02635,6.853747 4.97884,8.453937 5.06338,8.506517 0.0503,0.03127 0.15692,0.04038 0.23715,0.02019 0.14728,-0.03693 0.24244,-0.17375 1.16058,-1.668305 0.19334,-0.314733 1.02962,-1.653756 1.85836,-2.975606 0.82875,-1.321849 1.80265,-2.87974 2.16422,-3.461983 1.32517,-2.133967 1.91753,-3.064547 2.03552,-3.197736 0.0664,-0.07497 0.22375,-0.183836 0.34966,-0.24194 0.2112,-0.0975 0.42,-0.105748 2.70288,-0.106856 l 2.47399,-0.0012 0.17819,0.159213 c 0.20635,0.184376 0.28759,0.584925 0.16621,0.819504 -0.039,0.07547 -0.48899,0.806639 -0.99992,1.624923 -2.29915,3.682269 -4.89168,7.843704 -5.29396,8.497618 -0.24202,0.393409 -1.37917,2.221679 -2.52699,4.062827 -1.14783,1.841145 -2.96285,4.856273 -2.96285,4.856273 -0.81414,1.422486 -1.99861,1.459271 -3.01918,-0.02439 z M 254.3731,63.308439 c -0.84321,-0.05343 -0.72981,-0.196675 -1.06561,-0.706432 -0.27788,-0.421859 -1.02659,-2.173657 -1.88091,-2.050944 l -0.72676,-0.0123 c -0.52177,-0.0089 -0.41565,0.266378 -0.0497,0.720552 0.18655,0.2315 1.01216,1.431782 1.16299,1.604512 0.23215,0.265834 0.0473,0.54121 -0.28246,0.547981 h -2.78761 -2.78759 l -0.29926,-0.149095 c -0.21173,-0.105502 -0.35879,-0.235181 -0.50296,-0.443489 -0.21869,-0.315963 -1.79237,-2.956251 -1.97274,-3.309788 -0.31309,-0.624355 0.072,-1.085104 0.59594,-1.36214 l 10.71895,0.0012 c 9.19196,9.18e-4 12.18201,-0.0048 12.4385,-0.0048 1.1145,0 1.73297,1.077499 0.99239,2.238291 -0.27086,0.424556 0.59978,-0.953108 -0.15315,0.261201 -1.46996,2.37079 -1.54257,2.573975 -2.02814,2.708825 -3.79776,0.186652 -7.57465,-0.04482 -11.37192,-0.0437 z m 14.42486,0.0075 c 0,0.174761 -0.35879,-0.283843 -0.35879,-0.475495 0,-0.172719 2.33138,-4.04643 2.59386,-4.310048 0.36269,-0.364246 0.26491,-0.352342 3.04281,-0.370501 l 2.53559,-0.01662 0.19682,0.196822 c 0.27952,0.279511 -1.4818,3.491997 -1.77413,3.974522 -0.3171,0.523421 -0.50656,0.739178 -0.77506,0.882669 -1.63486,0.230602 -5.4611,0.11855 -5.4611,0.11855 z"
       id="path791"
       sodipodi:nodetypes="cssssscsscsssssccssssscccscssscccsssccssssccssscsssccss" /></g></svg>
