<?xml version="1.0" encoding="UTF-8" standalone="no"?>
<!-- Created with Inkscape (http://www.inkscape.org/) -->

<svg
   width="145"
   height="28"
   viewBox="234 44 145 28"
   version="1.1"
   id="svg1"
   xml:space="preserve"
   inkscape:version="1.2.2 (732a01da63, 2022-12-09)"
   sodipodi:docname="logo.svg"
   xmlns:inkscape="http://www.inkscape.org/namespaces/inkscape"
   xmlns:sodipodi="http://sodipodi.sourceforge.net/DTD/sodipodi-0.dtd"
   xmlns="http://www.w3.org/2000/svg"
   xmlns:svg="http://www.w3.org/2000/svg"><sodipodi:namedview
     id="namedview1"
     pagecolor="#ffffff"
     bordercolor="#000000"
     borderopacity="0.25"
     inkscape:showpageshadow="2"
     inkscape:pageopacity="0.0"
     inkscape:pagecheckerboard="0"
     inkscape:deskcolor="#d1d1d1"
     inkscape:document-units="mm"
     inkscape:zoom="1.0323759"
     inkscape:cx="825.76511"
     inkscape:cy="277.03088"
     inkscape:window-width="3440"
     inkscape:window-height="1417"
     inkscape:window-x="-8"
     inkscape:window-y="-8"
     inkscape:window-maximized="1"
     inkscape:current-layer="layer1"
     showguides="true"
     showgrid="false"><sodipodi:guide
       position="188.87582,185.40347"
       orientation="0,-1"
       id="guide1"
       inkscape:locked="false" /><sodipodi:guide
       position="177.21844,180.1642"
       orientation="0,-1"
       id="guide2"
       inkscape:locked="false" /><sodipodi:guide
       position="172.50718,152.10938"
       orientation="0,-1"
       id="guide3"
       inkscape:locked="false" /><sodipodi:guide
       position="68.720285,140.54896"
       orientation="0,-1"
       id="guide4"
       inkscape:locked="false" /><sodipodi:guide
       position="249.54195,256.97272"
       orientation="1,0"
       id="guide456"
       inkscape:locked="false" /><sodipodi:guide
       position="268.25307,276.92972"
       orientation="0,-1"
       id="guide458"
       inkscape:locked="false" /><sodipodi:guide
       position="252.50963,255.64989"
       orientation="0,-1"
       id="guide460"
       inkscape:locked="false" /></sodipodi:namedview><defs
     id="defs1"><rect
       x="329.55273"
       y="623.40393"
       width="284.23923"
       height="111.22405"
       id="rect1" /><rect
       x="329.55273"
       y="623.40393"
       width="284.23923"
       height="111.22405"
       id="rect4" /><rect
       x="329.55273"
       y="623.40393"
       width="284.23923"
       height="111.22405"
       id="rect5" /><rect
       x="329.55273"
       y="623.40393"
       width="284.23923"
       height="111.22405"
       id="rect6" /><rect
       x="329.55273"
       y="623.40393"
       width="284.23923"
       height="111.22405"
       id="rect295" /><rect
       x="329.55273"
       y="623.40393"
       width="284.23923"
       height="111.22405"
       id="rect297" /><rect
       x="329.55273"
       y="623.40393"
       width="284.23923"
       height="111.22405"
       id="rect299" /><rect
       x="329.55273"
       y="623.40393"
       width="284.23923"
       height="111.22405"
       id="rect301" /><rect
       x="329.55273"
       y="623.40393"
       width="284.23923"
       height="111.22405"
       id="rect799" /><rect
       x="329.55273"
       y="623.40393"
       width="284.23923"
       height="111.22405"
       id="rect801" /></defs><g
     inkscape:label="Layer 1"
     inkscape:groupmode="layer"
     id="layer1"><path
       style="fill:#c65102;fill-opacity:1;stroke-width:0.175683"
       d="m 248.20219,69.495857 c 0,0 -1.75146,-2.786547 -4.50848,-7.411277 -0.51056,-0.85644 -1.76231,-2.9377 -2.78167,-4.62503 -1.01935,-1.68732 -1.91184,-3.13368 -1.9833,-3.2715 -0.14791,-0.28525 -0.15641,-0.36304 -0.0639,-0.58451 0.12767,-0.30557 0.11279,-0.30373 2.45926,-0.30373 2.3088,0 2.30089,-10e-4 2.5762,0.27448 0.0759,0.0759 0.70048,1.0485 1.38794,2.2187 3.27064,5.56736 4.04436,6.86721 4.11303,6.90992 0.0408,0.0254 0.12747,0.0328 0.19264,0.0164 0.11964,-0.03 0.19694,-0.14114 0.94275,-1.35518 0.15706,-0.25566 0.83636,-1.34336 1.50956,-2.41711 0.6732,-1.07375 1.46431,-2.33924 1.75801,-2.8122 1.07645,-1.73344 1.55763,-2.48936 1.65348,-2.59755 0.0539,-0.0609 0.18176,-0.14933 0.28402,-0.19653 0.17157,-0.0792 0.34118,-0.0859 2.19558,-0.0868 l 2.00964,-9.9e-4 0.14475,0.12933 c 0.16762,0.14977 0.23361,0.47514 0.13502,0.66569 -0.0317,0.0613 -0.39721,0.65524 -0.81224,1.31994 -1.86762,2.99114 -3.97357,6.37151 -4.30034,6.90269 -0.19659,0.31957 -1.12031,1.80469 -2.0527,3.30027 -0.93239,1.49558 -2.40674,3.944795 -2.40674,3.944795 -0.66134,1.155499 -1.62349,1.185378 -2.45251,-0.01981 z m -3.1052,-17.707411 c -0.68494,-0.0434 -0.59283,-0.15976 -0.8656,-0.57384 -0.22574,-0.34268 -0.83391,-1.76568 -1.52789,-1.666 l -0.59034,-0.01 c -0.42384,-0.0072 -0.33764,0.21638 -0.0404,0.58531 0.15152,0.18805 0.82218,1.16305 0.94471,1.30336 0.18857,0.21594 0.0385,0.43963 -0.22945,0.44513 h -2.2644 -2.26439 l -0.24305,-0.12111 c -0.17198,-0.0857 -0.29144,-0.19104 -0.40855,-0.36025 -0.17764,-0.25666 -1.45596,-2.40139 -1.60248,-2.68857 -0.25433,-0.50717 0.0585,-0.88144 0.4841,-1.10648 l 8.70709,9.9e-4 c 7.46671,7.56e-4 9.89555,-0.0039 10.10391,-0.0039 0.90532,0 1.40771,0.875262 0.80612,1.818184 -0.22003,0.34487 0.4872,-0.774218 -0.12441,0.212175 -1.19407,1.925814 -1.25304,2.090863 -1.64748,2.200403 -3.08496,0.15162 -6.15295,-0.0364 -9.2375,-0.0355 z m 11.71745,0.006 c 0,0.14196 -0.29145,-0.23057 -0.29145,-0.38625 0,-0.1403 1.8938,-3.28695 2.10701,-3.50109 0.29461,-0.29588 0.21519,-0.28621 2.47171,-0.30096 l 2.05967,-0.0135 0.15988,0.15988 c 0.22705,0.22705 -1.20367,2.83658 -1.44114,3.22854 -0.25759,0.42518 -0.41148,0.60044 -0.62958,0.717 -1.32802,0.18732 -4.4361,0.0963 -4.4361,0.0963 z"
       id="path791"
       sodipodi:nodetypes="cssssscsscsssssccssssscccscssscccsssccssssccssscsssccss" /><g
       aria-label="OVRLEY"
       transform="matrix(0.41118332,0,0,0.41118332,135.09048,-216.67969)"
       id="text797"
       style="font-weight:800;font-size:74.6667px;font-family:Manrope;-inkscape-font-specification:'Manrope Ultra-Bold';letter-spacing:3px;white-space:pre;shape-inside:url(#rect801);display:inline;fill:#e4f8f8"><path
         d="m 372.20896,671.6311 q 0,9.27083 -5.3125,14.73957 -5.31249,5.44271 -14.68749,5.44271 -9.34895,0 -14.66145,-5.44271 -5.3125,-5.46874 -5.3125,-14.73957 0,-9.34896 5.3125,-14.76562 5.3125,-5.4427 14.66145,-5.4427 9.32291,0 14.66145,5.4427 5.33854,5.41666 5.33854,14.76562 z m -13.2552,9.8177 q 1.45833,-1.77083 2.16146,-4.16666 0.70312,-2.42188 0.70312,-5.67708 0,-3.48959 -0.80729,-5.9375 -0.80729,-2.44792 -2.10937,-3.95833 -1.32813,-1.5625 -3.07292,-2.26563 -1.71875,-0.70312 -3.59375,-0.70312 -1.90104,0 -3.59375,0.67708 -1.66666,0.67709 -3.07291,2.23959 -1.30208,1.45833 -2.13542,4.03645 -0.80729,2.55208 -0.80729,5.9375 0,3.46354 0.78125,5.91145 0.80729,2.42188 2.10938,3.95833 1.30208,1.53646 3.04687,2.26563 1.74479,0.72916 3.67187,0.72916 1.92708,0 3.67188,-0.72916 1.74479,-0.75521 3.04687,-2.31771 z"
         style="font-size:53.3333px;font-family:Outfit;-inkscape-font-specification:'Outfit Ultra-Bold'"
         id="path376" /><path
         d="m 417.99539,652.23007 -14.14061,38.77602 h -11.19791 l -14.14062,-38.77602 h 10.49479 l 9.37499,27.23956 9.37499,-27.23956 z"
         style="font-size:53.3333px;font-family:Outfit;-inkscape-font-specification:'Outfit Ultra-Bold'"
         id="path378" /><path
         d="m 448.31308,664.10506 q 0,-1.45833 -0.59895,-2.5 -0.59896,-1.04166 -2.05729,-1.64062 -1.01563,-0.41667 -2.36979,-0.49479 -1.35417,-0.10417 -3.15104,-0.10417 h -3.61979 v 10.4427 h 3.07291 q 2.39583,0 4.01042,-0.23437 1.61458,-0.23438 2.70833,-1.06771 1.04166,-0.80729 1.51041,-1.77083 0.49479,-0.98959 0.49479,-2.63021 z m 15.59895,26.90103 H 451.6985 l -10.57291,-14.21875 h -4.60937 v 14.21875 h -9.94791 v -38.77602 h 16.77082 q 3.4375,0 5.91145,0.39062 2.47396,0.39063 4.63542,1.69271 2.1875,1.30208 3.46354,3.38541 1.30208,2.05729 1.30208,5.18229 0,4.29688 -2.00521,7.00521 -1.97916,2.70833 -5.67708,4.5052 z"
         style="font-size:53.3333px;font-family:Outfit;-inkscape-font-specification:'Outfit Ultra-Bold'"
         id="path380" /><path
         d="m 499.25576,691.00609 h -27.96873 v -38.77602 h 9.99999 v 31.27602 h 17.96874 z"
         style="font-size:53.3333px;font-family:Outfit;-inkscape-font-specification:'Outfit Ultra-Bold'"
         id="path382" /><path
         d="m 536.31824,691.00609 h -28.04686 v -38.77602 h 28.04686 v 7.49999 H 518.2193 v 6.69271 h 16.79686 v 7.49999 H 518.2193 v 9.58333 h 18.09894 z"
         style="font-size:53.3333px;font-family:Outfit;-inkscape-font-specification:'Outfit Ultra-Bold'"
         id="path384" /><path
         d="m 581.81821,652.23007 -14.29686,23.77603 v 14.99999 h -10 v -14.53125 l -14.53124,-24.24477 h 11.35416 l 8.38541,14.99999 8.09896,-14.99999 z"
         style="font-size:53.3333px;font-family:Outfit;-inkscape-font-specification:'Outfit Ultra-Bold'"
         id="path386" /></g></g></svg>
