<svg xmlns="http://www.w3.org/2000/svg" viewBox="0 0 24 24" fill="none" stroke="currentColor" stroke-width="2" stroke-linecap="round" stroke-linejoin="round">
  <path d="M13.997 4a2 2 0 0 1 1.76 1.05l.486.9A2 2 0 0 0 18.003 7H20a2 2 0 0 1 2 2v9a2 2 0 0 1-2 2H4a2 2 0 0 1-2-2V9a2 2 0 0 1 2-2h1.997a2 2 0 0 0 1.759-1.048l.489-.904A2 2 0 0 1 10.004 4z" />
  <circle cx="12" cy="12.4" r="2.4" />
  <circle cx="12" cy="7.65" r="1" fill="currentColor" stroke="none" />
  <circle cx="16.1" cy="10.05" r="1" fill="currentColor" stroke="none" />
  <circle cx="16.1" cy="14.75" r="1" fill="currentColor" stroke="none" />
  <circle cx="12" cy="17.15" r="1" fill="currentColor" stroke="none" />
  <circle cx="7.9" cy="14.75" r="1" fill="currentColor" stroke="none" />
  <circle cx="7.9" cy="10.05" r="1" fill="currentColor" stroke="none" />
</svg>
