<svg xmlns="http://www.w3.org/2000/svg" viewBox="0 0 24 24" fill="none" stroke="currentColor" stroke-width="2" stroke-linecap="round" stroke-linejoin="round">
  <path d="M13.997 4a2 2 0 0 1 1.76 1.05l.486.9A2 2 0 0 0 18.003 7H20a2 2 0 0 1 2 2v9a2 2 0 0 1-2 2H4a2 2 0 0 1-2-2V9a2 2 0 0 1 2-2h1.997a2 2 0 0 0 1.759-1.048l.489-.904A2 2 0 0 1 10.004 4z" />
  <line x1="5.4" y1="10.8" x2="5.4" y2="15.2" />
  <path d="M11.7 10.8H9.45a1.1 1.1 0 0 0 0 2.2H11.25a1.1 1.1 0 0 1 0 2.2H8.95" />
  <circle cx="16.9" cy="13" r="2.2" />
</svg>
